<?xml version="1.0" standalone="no"?><!DOCTYPE svg PUBLIC "-//W3C//DTD SVG 1.1//EN" "http://www.w3.org/Graphics/SVG/1.1/DTD/svg11.dtd"><svg t="1677144296549" class="icon" viewBox="0 0 1024 1024" version="1.1" xmlns="http://www.w3.org/2000/svg" p-id="2038" xmlns:xlink="http://www.w3.org/1999/xlink" width="200" height="200"><path d="M563.2 358.4h256c56.32 0 102.4 46.08 102.4 102.4v409.6c0 87.04-66.56 153.6-153.6 153.6h-204.8c-56.32 0-102.4-46.08-102.4-102.4V460.8c0-56.32 46.08-102.4 102.4-102.4z" fill="#5AC8FA" p-id="2039"></path><path d="M762.88 76.8h30.72C865.28 76.8 921.6 133.12 921.6 204.8v691.2c0 71.68-56.32 128-128 128h-563.2C158.72 1024 102.4 967.68 102.4 896V204.8c0-71.68 56.32-128 128-128h30.72C271.36 30.72 312.32 0 358.4 0h307.2c46.08 0 87.04 30.72 97.28 76.8z m-501.76 51.2h-30.72C189.44 128 153.6 163.84 153.6 204.8v691.2c0 40.96 35.84 76.8 76.8 76.8h563.2c40.96 0 76.8-35.84 76.8-76.8V204.8c0-40.96-35.84-76.8-76.8-76.8h-30.72c-10.24 46.08-51.2 76.8-97.28 76.8H358.4c-46.08 0-87.04-30.72-97.28-76.8zM358.4 51.2c-30.72 0-51.2 20.48-51.2 51.2s20.48 51.2 51.2 51.2h307.2c30.72 0 51.2-20.48 51.2-51.2s-20.48-51.2-51.2-51.2H358.4z" fill="" p-id="2040"></path></svg>